<svg xmlns="http://www.w3.org/2000/svg" viewBox="0 0 512 512">
  <defs>
    <linearGradient id="g" x1="0" y1="0" x2="1" y2="1">
      <stop offset="0" stop-color="#7fb8ff"/>
      <stop offset="1" stop-color="#a07bff"/>
    </linearGradient>
  </defs>
  <rect width="512" height="512" rx="110" fill="#070a10"/>
  <rect x="14" y="14" width="484" height="484" rx="96" fill="none" stroke="#1b2534" stroke-width="10"/>
  <!-- 歯車（大） -->
  <g fill="url(#g)" stroke="#fff3e6" stroke-width="5" stroke-linejoin="round">
    <path d="M256 118
      l16 0 4 30 24 8 22-20 26 14-8 28 18 18 28-8 14 26-20 22 8 24 30 4 0 32-30 4-8 24 20 22-14 26-28-8-18 18 8 28-26 14-22-20-24 8-4 30-32 0-4-30-24-8-22 20-26-14 8-28-18-18-28 8-14-26 20-22-8-24-30-4 0-32 30-4 8-24-20-22 14-26 28 8 18-18-8-28 26-14 22 20 24-8 4-30z"/>
  </g>
  <circle cx="256" cy="256" r="58" fill="#070a10" stroke="#fff3e6" stroke-width="5"/>
  <!-- 寸法線（下辺） -->
  <line x1="96" y1="392" x2="416" y2="392" stroke="#fff3e6" stroke-width="4"/>
  <line x1="96" y1="378" x2="96" y2="406" stroke="#fff3e6" stroke-width="4"/>
  <line x1="416" y1="378" x2="416" y2="406" stroke="#fff3e6" stroke-width="4"/>
  <path d="M96 392 l14 -6 0 12z" fill="#fff3e6"/>
  <path d="M416 392 l-14 -6 0 12z" fill="#fff3e6"/>
  <text x="256" y="478" text-anchor="middle" font-family="Arial Black, sans-serif" font-size="46" font-weight="900" fill="#7fb8ff" letter-spacing="4">GEAR FORGE</text>
</svg>
